<svg xmlns="http://www.w3.org/2000/svg" width="9.899" height="14.402" viewBox="0 0 9.899 14.402"><defs><style>.a{fill:#fff;}</style></defs><path class="a" d="M6.762,0A5.45,5.45,0,0,0,1.921,2.56a.676.676,0,0,0,.146.925l1.213.92a.675.675,0,0,0,.935-.117A2.729,2.729,0,0,1,6.544,2.9c.865,0,1.936.557,1.936,1.4,0,.634-.524.96-1.378,1.439-1,.559-2.315,1.254-2.315,2.993V9a.675.675,0,0,0,.675.675H7.5A.675.675,0,0,0,8.175,9V8.839c0-1.206,3.524-1.256,3.524-4.518C11.7,1.864,9.15,0,6.762,0ZM6.48,10.5a1.948,1.948,0,1,0,1.949,1.948A1.951,1.951,0,0,0,6.48,10.5Z" transform="translate(-1.8)"/></svg>