<svg xmlns="http://www.w3.org/2000/svg" width="15.472" height="22.317" viewBox="0 0 15.472 22.317"><defs><style>.a{fill:#00a5b8;}</style></defs><path class="a" d="M76.96,20.11H74.4a.275.275,0,0,1-.275-.275V13.519a.843.843,0,0,1,.3-.607c1.458-1.175,2.051-2.317,1.536-4.241l0-.008c-.022-.088-.068-.133-.137-.133a.213.213,0,0,0-.118.043l-1.286.869a1.354,1.354,0,0,1-.746.24.819.819,0,0,1-.7-.333.793.793,0,0,1-.075-.7,1.32,1.32,0,0,1,.529-.678l1.523-1.029.01-.008a.225.225,0,0,0,.019-.3l-.614-.909a.186.186,0,0,0-.157-.087.253.253,0,0,0-.138.046L72.571,6.7a1.355,1.355,0,0,1-.746.24.819.819,0,0,1-.7-.333.793.793,0,0,1-.075-.7,1.32,1.32,0,0,1,.528-.678l1.438-.971a.335.335,0,0,0,.151-.189.215.215,0,0,0-.035-.172l-.6-.889a.206.206,0,0,0-.175-.093.33.33,0,0,0-.16.047l-1.476,1a1.354,1.354,0,0,1-.746.24.819.819,0,0,1-.7-.333,1.043,1.043,0,0,1,.453-1.376l1.3-.877a.244.244,0,0,0,.116-.194.553.553,0,0,0-.213-.379A3.837,3.837,0,0,0,68.444,0a6.2,6.2,0,0,0-3.375,1.369,6.7,6.7,0,0,0-2.413,2.4,3.745,3.745,0,0,0-.009,3.125.255.255,0,0,0,.231.172.289.289,0,0,0,.162-.055l1.329-.9a1.354,1.354,0,0,1,.746-.24.819.819,0,0,1,.7.333.793.793,0,0,1,.075.7,1.32,1.32,0,0,1-.529.678l-1.484,1a.266.266,0,0,0-.117.154.2.2,0,0,0,.033.155l.623.923a.2.2,0,0,0,.166.094.251.251,0,0,0,.142-.049L66.22,8.851a1.355,1.355,0,0,1,.746-.24.819.819,0,0,1,.7.333.793.793,0,0,1,.075.7,1.32,1.32,0,0,1-.528.678l-1.445.976a.284.284,0,0,0-.081.4l.56.83a.227.227,0,0,0,.192.1.354.354,0,0,0,.179-.056l1.452-.981a1.354,1.354,0,0,1,.746-.24.819.819,0,0,1,.7.333,1.043,1.043,0,0,1-.453,1.376l-1.268.856a.171.171,0,0,0-.086.141.244.244,0,0,0,.116.187,3.729,3.729,0,0,0,2.215.832,3.653,3.653,0,0,0,1.323-.271c.15-.058.455-.215.455.361v4.668a.275.275,0,0,1-.275.275h-2.56a.825.825,0,0,0-.824.824v.56a.825.825,0,0,0,.824.824H76.96a.825.825,0,0,0,.824-.824v-.56A.825.825,0,0,0,76.96,20.11Z" transform="translate(-62.312)"/></svg>