<svg xmlns="http://www.w3.org/2000/svg" width="126" height="47" viewBox="0 0 126 47"><defs><style>.a{fill:#ffca05;}.b,.c{fill:#fff;}.b{font-size:14px;font-family:SourceSansPro-Semibold, Source Sans Pro;font-weight:600;}</style></defs><g transform="translate(-1028 -185)"><rect class="a" width="126" height="47" rx="23.5" transform="translate(1028 185)"/><text class="b" transform="translate(1075 214)"><tspan x="0" y="0">Auto Player</tspan></text><g transform="translate(-1 -4.684)"><circle class="a" cx="15" cy="15" r="15" transform="translate(1039 198)"/><path class="c" d="M19.692,3.375A16.317,16.317,0,1,0,36.009,19.692,16.315,16.315,0,0,0,19.692,3.375ZM26.266,20,15.5,26.509a.349.349,0,0,1-.526-.306V13.181a.348.348,0,0,1,.526-.306l10.763,6.511A.36.36,0,0,1,26.266,20Z" transform="translate(1034.308 193.308)"/></g></g></svg>