<svg xmlns="http://www.w3.org/2000/svg" width="22" height="22" viewBox="0 0 22 22"><defs><style>.a{fill:#4ba0f0;}</style></defs><path class="a" d="M9.281,0h3.438A1.029,1.029,0,0,1,13.75,1.031V8.25h3.768a.858.858,0,0,1,.606,1.465l-6.536,6.54a.833.833,0,0,1-1.173,0L3.872,9.715A.858.858,0,0,1,4.477,8.25H8.25V1.031A1.029,1.029,0,0,1,9.281,0ZM22,16.156v4.813A1.029,1.029,0,0,1,20.969,22H1.031A1.029,1.029,0,0,1,0,20.969V16.156a1.029,1.029,0,0,1,1.031-1.031h6.3L9.44,17.231a2.2,2.2,0,0,0,3.12,0l2.105-2.105h6.3A1.029,1.029,0,0,1,22,16.156Zm-5.328,3.781a.859.859,0,1,0-.859.859A.862.862,0,0,0,16.672,19.938Zm2.75,0a.859.859,0,1,0-.859.859A.862.862,0,0,0,19.422,19.938Z"/></svg>