<svg xmlns="http://www.w3.org/2000/svg" width="19.625" height="13.083" viewBox="0 0 19.625 13.083"><defs><style>.a{fill:#001d92;}</style></defs><path class="a" d="M19.507,10.544A10.928,10.928,0,0,0,9.813,4.5,10.93,10.93,0,0,0,.119,10.545a1.1,1.1,0,0,0,0,.995,10.928,10.928,0,0,0,9.694,6.044,10.93,10.93,0,0,0,9.694-6.045A1.1,1.1,0,0,0,19.507,10.544Zm-9.694,5.4a4.906,4.906,0,1,1,4.906-4.906A4.906,4.906,0,0,1,9.813,15.948Zm0-8.177A3.247,3.247,0,0,0,8.95,7.9a1.63,1.63,0,0,1-2.279,2.279A3.263,3.263,0,1,0,9.813,7.771Z" transform="translate(0 -4.5)"/></svg>