<?xml version="1.0" encoding="utf-8"?>
<!-- Generator: Adobe Illustrator 25.0.0, SVG Export Plug-In . SVG Version: 6.00 Build 0)  -->
<svg version="1.1" id="Layer_1" xmlns="http://www.w3.org/2000/svg" width="19.625" height="13.083" xmlns:xlink="http://www.w3.org/1999/xlink" x="0px" y="0px"
	 viewBox="0 0 19.6 13.1" style="enable-background:new 0 0 19.6 13.1;" xml:space="preserve">
<style type="text/css">
	.st0{fill:#4BA0F0;}
</style>
<path class="st0" d="M19.5,6c-1.8-3.7-5.6-6-9.7-6C5.7,0,2,2.4,0.1,6C0,6.4,0,6.7,0.1,7c1.8,3.7,5.6,6,9.7,6c4.1,0,7.9-2.4,9.7-6
	C19.7,6.7,19.7,6.4,19.5,6z M9.8,11.4c-2.7,0-4.9-2.2-4.9-4.9s2.2-4.9,4.9-4.9s4.9,2.2,4.9,4.9l0,0C14.7,9.2,12.5,11.4,9.8,11.4
	C9.8,11.4,9.8,11.4,9.8,11.4L9.8,11.4z M9.8,3.3c-0.3,0-0.6,0.1-0.9,0.1c0.5,0.7,0.4,1.7-0.3,2.3C8,6.1,7.2,6.1,6.7,5.7
	C6.2,7.4,7.2,9.2,9,9.7s3.5-0.6,4-2.3s-0.6-3.5-2.3-4C10.4,3.3,10.1,3.3,9.8,3.3L9.8,3.3z"/>
</svg>
