<svg width="25" height="25" viewBox="0 0 25 25" fill="none" xmlns="http://www.w3.org/2000/svg">
<path d="M11.5 16.0714C11.5 16.6237 11.9477 17.0714 12.5 17.0714C13.0523 17.0714 13.5 16.6237 13.5 16.0714H11.5ZM13.5 12.5C13.5 11.9477 13.0523 11.5 12.5 11.5C11.9477 11.5 11.5 11.9477 11.5 12.5H13.5ZM20.4286 12.5C20.4286 16.8788 16.8788 20.4286 12.5 20.4286V22.4286C17.9834 22.4286 22.4286 17.9834 22.4286 12.5H20.4286ZM12.5 20.4286C8.12117 20.4286 4.57143 16.8788 4.57143 12.5H2.57143C2.57143 17.9834 7.0166 22.4286 12.5 22.4286V20.4286ZM4.57143 12.5C4.57143 8.12115 8.12117 4.57141 12.5 4.57141V2.57141C7.0166 2.57141 2.57143 7.01658 2.57143 12.5H4.57143ZM12.5 4.57141C16.8788 4.57141 20.4286 8.12115 20.4286 12.5H22.4286C22.4286 7.01658 17.9834 2.57141 12.5 2.57141V4.57141ZM13.5 16.0714V12.5H11.5V16.0714H13.5ZM12.3929 8.92855C12.3929 8.86938 12.4408 8.82141 12.5 8.82141V10.8214C13.5454 10.8214 14.3929 9.97395 14.3929 8.92855H12.3929ZM12.5 8.82141C12.5592 8.82141 12.6071 8.86938 12.6071 8.92855H10.6071C10.6071 9.97395 11.4546 10.8214 12.5 10.8214V8.82141ZM12.6071 8.92855C12.6071 8.98773 12.5592 9.0357 12.5 9.0357V7.0357C11.4546 7.0357 10.6071 7.88316 10.6071 8.92855H12.6071ZM12.5 9.0357C12.4408 9.0357 12.3929 8.98773 12.3929 8.92855H14.3929C14.3929 7.88316 13.5454 7.0357 12.5 7.0357V9.0357Z" fill="#4BA0F0"/>
</svg>
