<svg xmlns="http://www.w3.org/2000/svg" width="36" height="36" viewBox="0 0 36 36"><defs><style>.a{fill:#00a5b8;}</style></defs><path class="a" d="M13.5,14.625a2.25,2.25,0,0,0-2.25-2.25H10.125a4.5,4.5,0,0,0-4.5,4.5V20.25a4.5,4.5,0,0,0,4.5,4.5H11.25A2.25,2.25,0,0,0,13.5,22.5ZM25.875,24.75a4.5,4.5,0,0,0,4.5-4.5V16.875a4.5,4.5,0,0,0-4.5-4.5H24.75a2.25,2.25,0,0,0-2.25,2.25V22.5a2.25,2.25,0,0,0,2.25,2.25ZM18,0C7.958,0,.322,8.355,0,18v1.125A1.125,1.125,0,0,0,1.125,20.25H2.25a1.125,1.125,0,0,0,1.125-1.125V18a14.625,14.625,0,0,1,29.25,0h-.008c.006.171.008,11.652.008,11.652a2.973,2.973,0,0,1-2.973,2.973H22.5a3.375,3.375,0,0,0-3.375-3.375h-2.25a3.375,3.375,0,0,0,0,6.75H29.652A6.348,6.348,0,0,0,36,29.652V18C35.678,8.355,28.042,0,18,0Z"/></svg>