<svg xmlns="http://www.w3.org/2000/svg" xmlns:xlink="http://www.w3.org/1999/xlink" width="194.346" height="193.932" viewBox="0 0 194.346 193.932"><defs><style>.a{fill:#e9f3ff;}.b,.p{fill:#fff;}.c{fill:#2c294f;}.d{fill:url(#a);}.e{fill:url(#b);}.f{fill:url(#c);}.g{fill:url(#d);}.h{fill:url(#e);}.i{fill:url(#f);}.j{fill:url(#g);}.k{fill:url(#h);}.l{fill:url(#i);}.m,.p{opacity:0.15;mix-blend-mode:overlay;isolation:isolate;}.n{fill:url(#j);}.o{fill:#f8fcff;}.q,.x{fill:none;stroke-miterlimit:10;}.q{stroke:#2c294f;}.r{fill:url(#k);}.s{fill:url(#l);}.t{fill:url(#m);}.u{fill:url(#n);}.v{fill:url(#o);}.w{fill:url(#p);}.x{stroke:#707070;}.y{fill:url(#q);}.z{fill:url(#r);}.aa{fill:url(#s);}.ab{fill:url(#t);}.ac{fill:url(#u);}.ad{fill:url(#v);}.ae{fill:url(#w);}.af{fill:#cfe3ff;}</style><linearGradient id="a" x1="0.467" y1="-0.241" x2="0.545" y2="0.978" gradientUnits="objectBoundingBox"><stop offset="0" stop-color="#ffa252"/><stop offset="1" stop-color="#ff6e52"/></linearGradient><linearGradient id="b" x1="1.287" y1="0.884" x2="-0.237" y2="0.023" gradientUnits="objectBoundingBox"><stop offset="0" stop-color="#ffd2d2"/><stop offset="1" stop-color="#ffa4a4"/></linearGradient><linearGradient id="c" x1="1.325" y1="1.501" x2="0.198" y2="-0.022" xlink:href="#b"/><linearGradient id="d" x1="0.242" y1="0.681" x2="1.115" y2="-0.058" xlink:href="#b"/><linearGradient id="e" x1="1.014" y1="0.044" x2="0.014" y2="1.049" xlink:href="#b"/><linearGradient id="f" x1="2.23" y1="-0.469" x2="-0.537" y2="0.931" xlink:href="#a"/><linearGradient id="g" x1="1.126" y1="-0.309" x2="-0.237" y2="1.278" xlink:href="#a"/><linearGradient id="h" x1="1.458" y1="-7.027" x2="-4.666" y2="-2.444" xlink:href="#a"/><linearGradient id="i" x1="0.193" y1="-2.54" x2="-3.389" y2="0.322" xlink:href="#a"/><linearGradient id="j" x1="0.182" y1="-0.243" x2="0.75" y2="0.985" xlink:href="#a"/><linearGradient id="k" x1="0.554" y1="-1.704" x2="0.48" y2="1.401" gradientUnits="objectBoundingBox"><stop offset="0" stop-color="#85b1ff"/><stop offset="1" stop-color="#5a8dff"/></linearGradient><linearGradient id="l" x1="0.51" y1="0.089" x2="0.482" y2="0.748" xlink:href="#k"/><linearGradient id="m" x1="0.263" y1="0.159" x2="0.917" y2="1.545" xlink:href="#b"/><linearGradient id="n" x1="1.335" y1="0.641" x2="-0.766" y2="0.287" xlink:href="#b"/><linearGradient id="o" x1="1.069" y1="0.533" x2="-0.075" y2="0.45" xlink:href="#b"/><linearGradient id="p" x1="0.494" y1="0.914" x2="0.536" y2="-0.771" xlink:href="#b"/><linearGradient id="q" x1="0.691" y1="1.247" x2="0.369" y2="-0.242" gradientUnits="objectBoundingBox"><stop offset="0" stop-color="#85b1ff"/><stop offset="1" stop-color="#d2e4f1"/></linearGradient><linearGradient id="r" x1="1.616" y1="0.266" x2="-1.6" y2="0.986" xlink:href="#b"/><linearGradient id="s" x1="1.081" y1="1.503" x2="0.124" y2="-0.303" xlink:href="#b"/><linearGradient id="t" x1="1.094" y1="0.869" x2="0.201" y2="0.138" xlink:href="#b"/><linearGradient id="u" x1="0.636" y1="1.874" x2="0.354" y2="-1.487" xlink:href="#q"/><linearGradient id="v" x1="0.55" y1="1.589" x2="0.347" y2="-2.591" xlink:href="#q"/><linearGradient id="w" x1="0.888" y1="0.821" x2="-0.403" y2="-0.799" xlink:href="#b"/></defs><g transform="translate(-67.713 -50.486)"><g transform="translate(67.713 50.486)"><g transform="translate(0 27.848)"><path class="a" d="M244.325,165.469q-.031.624-.073,1.246c-2.063,32.6-13.721,69.384-25.071,75.317-19.1,9.986-57.965,5.393-78.47-3.963S111.372,241.063,99,239.827c-11.856-1.188-29.72-16.985-31.187-41.011q-.1-1.568-.1-3.178s.01-1.253.156-3.33c.523-7.349,2.786-25.023,12.568-34.026,12.551-11.548,27.927-4.358,43.482-8.038a22.673,22.673,0,0,0,4.42-1.558,40.9,40.9,0,0,0,10.9-7.989c8.5-8.259,16.252-19.761,25.3-27.221,14.105-11.637,41.042-14.244,67.377,3.489C242.4,124.029,245.543,143.707,244.325,165.469Z" transform="translate(-67.713 -104.207)"/><path class="b" d="M104.006,277.374l-36.2.412q-.1-1.568-.1-3.178s.01-1.253.156-3.33a6.246,6.246,0,0,0,1.613.194c2.945,0,4.476-3.3,9.308-3.3s7.425,6.712,10.606,6.712,4.24-1.533,7.3,0A38.431,38.431,0,0,0,104.006,277.374Z" transform="translate(-67.713 -183.176)"/><path class="b" d="M349.934,207.69c-1.648-.078-2.121,1.532-5.067,1.532s-4.477-3.292-9.309-3.292-7.424,6.709-10.605,6.709-4.242-1.532-7.306,0a38.3,38.3,0,0,1-7.306,2.486l51.73.59S357.357,208.043,349.934,207.69Z" transform="translate(-184.565 -153.198)"/><path class="b" d="M235.53,180.354l-50.865.578a40.9,40.9,0,0,0,10.9-7.989c.121-.01.246-.017.371-.024,1.647-.079,2.122,1.53,5.067,1.53s4.479-3.292,9.308-3.292,7.425,6.712,10.606,6.712,4.244-1.533,7.307,0A38.422,38.422,0,0,0,235.53,180.354Z" transform="translate(-124.038 -136.451)"/></g><g transform="translate(135.656 21.207)"><g transform="translate(0)"><path class="c" d="M407.792,107.5s3.117,3.624,3.691,3.447-.928-4.971-.928-4.971" transform="translate(-367.155 -98.419)"/><path class="d" d="M368.3,141.692s.177,1.437.5,3.5c.4,2.589,1.032,6.168,1.824,9.135.609,2.288,1.319,4.212,2.1,5.043-1.928-.377-11.25,2.825-17.189,6.885-2.413,1.652-4.268,3.444-4.846,5.2-.91-2.558-1.059-5.981-.941-9.512.135-3.894.6-7.927.744-11.084v0c.049-1.038.063-1.98.021-2.794a14.11,14.11,0,0,0-4.631,3.195c-1.007-3.018-3.721-6.258-5.4-8.065,4.794-6.926,11.485-11.606,15.082-12.437,7.107-1.641,13.707,1.229,17.169,2.271a31.016,31.016,0,0,1,1.295,4.874,16.323,16.323,0,0,1,.249,3.33A17.706,17.706,0,0,1,368.3,141.692Z" transform="translate(-334.733 -110.109)"/><path class="c" d="M370.269,106.495a13.592,13.592,0,0,1-1.412.592,12.831,12.831,0,0,1-5.362.772l-1.26,1.942s-.135-1.326-1.284-.973a1.21,1.21,0,0,0,.8,2.277l-1,2.769a2.252,2.252,0,0,0-1.8-1.34c-1.43-.252-3.136-2.606-1.281-3.891-2.063-2.475-1.326-5.538,1.53-6.584s5.317-.014,8.4-.914,3.7-1.589,3.7-1.589S374.038,104.667,370.269,106.495Z" transform="translate(-342.452 -95.327)"/><path class="e" d="M371.2,121.371a3.776,3.776,0,0,1-.4.19,6.688,6.688,0,0,1-4.9.291,4.853,4.853,0,0,1-1.7-.983l1-2.769a1.21,1.21,0,0,1-.8-2.277c1.149-.354,1.284.972,1.284.972l.921-1.422.339-.519a12.831,12.831,0,0,0,5.362-.772,10.357,10.357,0,0,1,.457,1.333C373.239,117.137,373.61,120.076,371.2,121.371Z" transform="translate(-345.9 -102.321)"/><path class="f" d="M373.463,130.971c-.332,1.215-4.244,2.253-5.486.11a5.22,5.22,0,0,0,0-2.458,6.688,6.688,0,0,0,4.9-.291,3.77,3.77,0,0,0,.4-.19A17.479,17.479,0,0,0,373.463,130.971Z" transform="translate(-347.979 -109.094)"/><path class="g" d="M340.537,163.264c-5.382,5.49-6.642,14.441-6.12,14.894.647.558,1.443,2.416.588,3.268.118,1.827-.5,2.918-3.389,2.271s-2.561-2.122-1.236-5.715c-2.291-8.626.478-16.6,4.759-22.783C336.816,157.006,339.53,160.246,340.537,163.264Z" transform="translate(-329.4 -122.124)"/><path class="h" d="M411.276,124.134c-.9,4.34-4.067,6.224-7.048,7.013a16.323,16.323,0,0,0-.249-3.33,31.013,31.013,0,0,0-1.295-4.874,4.716,4.716,0,0,0,2.053.319c2.032-.492,1.647-6.49,1.118-7.965s-.883-4.565.973-5.479,3.24-.62,3.271,1.606-1.416,2.222-1.533,3.167c-.073.585,1.226,3.05,2.074,5.5A8.506,8.506,0,0,1,411.276,124.134Z" transform="translate(-364.695 -100.035)"/><path class="c" d="M382.1,232.227a4.346,4.346,0,0,1-3.873.585,6.312,6.312,0,0,1-1.9-.948,6.092,6.092,0,0,1-2-2.378,2.11,2.11,0,0,1-.087-1.143c.505-3.572,6.217-11.617,6.449-15.3.266-4.153-6.629-10.692-6.629-10.692s.433,3.122-.724,10.63c-.322,2.108-.775,4.569-1.394,7.4-2.828,12.9-15.822,26.248-18.384,25.982a8,8,0,0,1-1.163-.212,5.954,5.954,0,0,1-2.236-1.1,5.535,5.535,0,0,1-1.977-4.095c-.007-.083-.014-.166-.017-.249-.177-3.891,11.315-14.76,11.578-20.682s-5.036-12.9-5.362-21.561c2-6.071,19.325-12.61,22.035-12.081,0,0,.09.073.26.215,1.987,1.627,14.673,12.24,16.386,18.671C394.917,212.254,384.931,230.2,382.1,232.227Z" transform="translate(-338.436 -137.13)"/><path class="i" d="M346.079,296.884c-2.212,3.2-5.282,14.6-8.736,14.233-3.828-.412-1.824-8.249-1.294-10.723s-.53-5.362.235-6.421c.668-.924,4.15-1.492,5.583-2.285A5.406,5.406,0,0,0,346.079,296.884Z" transform="translate(-332.122 -187.859)"/><path class="j" d="M398.054,271.819c-.412.942-.927,2.181-1.343,3.361-.824,2.357.827,11.606-2.769,10.665s-4.005-6.186-3.652-8.543-1.354-4.773-.883-6.479c.391-1.419,3.32-2.555,4.656-3.472a2.109,2.109,0,0,0,.087,1.143A6.42,6.42,0,0,0,398.054,271.819Z" transform="translate(-358.26 -176.137)"/><g transform="translate(37.886)"><path class="k" d="M405.162,105.494a1.375,1.375,0,1,1-1.746-.856A1.376,1.376,0,0,1,405.162,105.494Z" transform="translate(-402.485 -97.738)"/><path class="l" d="M427.116,95.07a2.171,2.171,0,1,1-2.756-1.352A2.171,2.171,0,0,1,427.116,95.07Z" transform="translate(-412.312 -92.458)"/><path class="c" d="M416.975,98.729l-11.285,2.4a.5.5,0,0,1-.57-.3l-1.051-2.587a.5.5,0,0,1,.2-.614l9.76-6.153a.5.5,0,0,1,.733.236l2.576,6.339A.5.5,0,0,1,416.975,98.729Z" transform="translate(-403.23 -91.396)"/></g><path class="m" d="M406.918,224.224c-1.149,3.8-5.566,10.072-6.009,14.316a2.747,2.747,0,0,1-1.177,2.111,6.091,6.091,0,0,1-2-2.378,2.109,2.109,0,0,1-.087-1.143c.505-3.572,6.217-11.617,6.449-15.3.267-4.153-6.629-10.692-6.629-10.692l-.706-6.539s5.791,5.126,7.4,9.72S408.068,220.423,406.918,224.224Z" transform="translate(-361.84 -145.918)"/><path class="m" d="M361.6,221.887c-2.236,6.712-8.273,17.639-11.44,23.167a5.535,5.535,0,0,1-1.977-4.095c-.007-.083-.014-.166-.017-.249-.177-3.891,11.315-14.76,11.578-20.682s-5.036-12.9-5.362-21.561c2-6.071,19.325-12.61,22.035-12.081,0,0,.09.073.26.215-2.887,1.1-14.5,5.788-17.816,10.893C355.059,203.341,364.692,212.607,361.6,221.887Z" transform="translate(-338.436 -137.13)"/><path class="n" d="M418.814,120.15l-.01-.024S418.842,119.759,418.814,120.15Z" transform="translate(-372.458 -105.158)"/><path class="m" d="M406.613,134.132c-.9,4.34-4.067,6.224-7.048,7.013a17.706,17.706,0,0,1-5.971.471L393,137.787a20.7,20.7,0,0,0,6.314.028c3.074-.526,6.182-2.088,6.531-6.2.045-.55.09-1.055.129-1.519A8.506,8.506,0,0,1,406.613,134.132Z" transform="translate(-360.032 -110.033)"/><path class="m" d="M364.1,182.791c-2.413,1.652-4.268,3.444-4.846,5.2-2.239-6.307.118-17.854-.177-23.392,1.769,2.122,1,7.013,2.887,11.018C363.319,178.5,363.429,181.2,364.1,182.791Z" transform="translate(-343.307 -126.649)"/><ellipse class="c" cx="0.404" cy="0.53" rx="0.404" ry="0.53" transform="translate(23.01 13.997)"/><path class="c" d="M379.426,118.33a.419.419,0,1,1-.4-.53A.48.48,0,0,1,379.426,118.33Z" transform="translate(-353.104 -104.113)"/><path class="o" d="M371.951,122.6l3.027.486a2.174,2.174,0,0,1-1.812,1.215C371.973,124.257,371.951,122.6,371.951,122.6Z" transform="translate(-349.893 -106.424)"/><path class="p" d="M379.221,168.2c-6,.391-15.815,1.932-20.879,7.612.135-3.894.6-7.927.744-11.084v0s5.054-5.456,18.311-5.659C377.8,161.655,378.429,165.234,379.221,168.2Z" transform="translate(-343.339 -123.987)"/><path class="m" d="M375.5,115.414a8.368,8.368,0,0,1-6.158-.041l.339-.519a12.831,12.831,0,0,0,5.362-.772A10.351,10.351,0,0,1,375.5,115.414Z" transform="translate(-348.635 -102.321)"/></g><path class="q" d="M344.689,305.585s4.007,1.767,3.417,2.828-3.535-1.328-4.183-.59,3.741,2.24,2.828,3.477-3.181-2.5-4.036-1.326,3.123,3.24,3.123,3.24" transform="translate(-335.755 -194.552)"/><path class="q" d="M399.166,280.467s4.156.383,3.257,1.326-3.316-.884-3.934.206,2.033.5,2.857,1.679-2.268-.118-2.828.854,3.005,1.355,3.005,1.355" transform="translate(-362.629 -182.455)"/></g><g transform="translate(78.659 27.933)"><path class="c" d="M252.555,389.235c-.4.618-4.949,1.546-5.568,3.447s2.121,1.988,1.989,6.672,1.061,8.617,4.64,8.175,1.929-7.866,1.274-10.208,1.643-5.126,1.643-5.126" transform="translate(-232.668 -241.564)"/><path class="r" d="M262.4,338.378c-2.219,1.156-4.684,2.1-5.877,1.731a3.282,3.282,0,0,1-1.222-.716,5,5,0,0,1-.924-1.146,7.561,7.561,0,0,1-.931-5.306c.034-.145.073-.291.118-.432.72-2.233,5.874-5.656,8.258-7.84a20.141,20.141,0,0,1,.62,2.343,24.4,24.4,0,0,1,.4,4.226A48.7,48.7,0,0,1,262.4,338.378Z" transform="translate(-235.751 -210.468)"/><path class="s" d="M281.136,284.319c-.114,4.306-.872,8.172-2.295,10.578,1.177,14.5-12.61,39.948-15.673,39.6a9.123,9.123,0,0,1-5.445-3.208,4.3,4.3,0,0,1-1.052-3.981c3.77-3.856,6.3-12,7.28-19.436a37.736,37.736,0,0,0,.042-11.367,20.152,20.152,0,0,0-.62-2.343c-2.052-6.29-6.815-12.177-6.7-17.875a8.8,8.8,0,0,1,.132-1.416l2.866-2.211,14.69-11.34a10.7,10.7,0,0,1,1.243,1.3C279.471,267.357,281.347,276.561,281.136,284.319Z" transform="translate(-237.301 -179.956)"/><path class="t" d="M287.6,114.648a4.355,4.355,0,0,0-3.752,1.893c-1.551-1.18-2.523-3.461-2.087-4.247.464-.837,1.544.4,1.544.4s-2.717-7.2-.993-8.172,4.375,3,4.929,5.722A22.541,22.541,0,0,1,287.6,114.648Z" transform="translate(-249.407 -104.37)"/><path class="c" d="M259.729,147.785c-.273,1.412-.609,2.766-.987,4.06a57.254,57.254,0,0,1-2.984,7.906c-.619,1.354-1.243,2.614-1.835,3.78-1.831,3.617-3.358,6.359-3.465,8.262a8.484,8.484,0,0,0,.173,2.319,17.388,17.388,0,0,0,2.392,5.092,33.267,33.267,0,0,1,4.483,11.637c.138.713.263,1.461.377,2.253a12.658,12.658,0,0,1,.035,3.482.143.143,0,0,1-.007.038c-1.018,7.677-9.186,12.045-14.756,13.32a10.6,10.6,0,0,1-4.167.3,1.8,1.8,0,0,1-.81-.353c-2.389-2.122-.62-11.225-3.167-15.908-6.7,5.656-8.854,22.89-9.208,23.683a.686.686,0,0,1-.215.253c-.772.6-3.17.762-5.043-.232a.217.217,0,0,1-.045-.021,56.716,56.716,0,0,1,1.174-23.125q.493-2.025,1.093-3.984a76.339,76.339,0,0,1,3.164-8.539c.571-1.3,1.167-2.548,1.772-3.739,2.686-5.248,5.656-9.374,8.235-11.641,21.091-12.319,17.882-38.494,17.968-40a1.481,1.481,0,0,1,.145-.551,4.355,4.355,0,0,1,3.752-1.893,2.144,2.144,0,0,1,.218.024A45.737,45.737,0,0,1,259.729,147.785Z" transform="translate(-219.615 -113.914)"/><path class="u" d="M248.975,197.766a6.836,6.836,0,0,1-4.5,2.669,5.69,5.69,0,0,1-1.3,0,6.045,6.045,0,0,1-1.143-.246l-.491-2.811a.191.191,0,0,0-.349-.073.715.715,0,0,1-.969.232c-1.063-.443-1.194-2.7.661-2.253-.308-2.7,2.565-5.7,5.7-6.452a6.984,6.984,0,0,1,1.831.99,4.9,4.9,0,0,1,2.1,3.648A6.588,6.588,0,0,1,248.975,197.766Z" transform="translate(-229.08 -145.048)"/><path class="c" d="M242.118,179.227c-3.136.751-6.009,3.755-5.7,6.452-1.855-.443-1.724,1.81-.661,2.253a.71.71,0,0,0,.967-.233.194.194,0,0,1,.353.074l.49,2.811c-2.163.619-4.95-.62-6.67-2.918s1.236-4.462,1.236-4.462-2.077-.132-1.946-3.756,13.746-6.9,14.8-10.561C248.923,172.422,244.9,178.168,242.118,179.227Z" transform="translate(-224.618 -135.443)"/><path class="v" d="M254.127,209.216c-1.17,1.814-3.933,1.592-4.022.907a3.5,3.5,0,0,0-.955-1.388,6.837,6.837,0,0,0,4.5-2.669C254.172,206.98,254.981,207.89,254.127,209.216Z" transform="translate(-233.753 -153.348)"/><path class="w" d="M226.479,312.788c-.266,1.235-4.687,2.475-6.365.086-1.464-2.08-.1-7.088.266-8.332,1.872.994,4.271.831,5.043.232,1.163,1.575,1.211,3.835.658,4.389C225.462,309.783,226.742,311.548,226.479,312.788Z" transform="translate(-219.45 -200.775)"/><path class="m" d="M295.749,310.5s.118-12.43-4.126-16.791c3.358,1.336,4.988,3.759,6.421,6.213C297.93,304.224,297.171,308.091,295.749,310.5Z" transform="translate(-254.209 -195.556)"/><path class="m" d="M262.842,331.238a11.643,11.643,0,0,0-4.77,1.831,7.626,7.626,0,0,0-3.7,5.178,7.406,7.406,0,0,1-.813-5.739c.72-2.233,5.874-5.656,8.258-7.84a20.16,20.16,0,0,1,.62,2.343A24.406,24.406,0,0,1,262.842,331.238Z" transform="translate(-235.751 -210.468)"/><path class="c" d="M248.377,347.055c-2.946,3.513-3.808,12.388-7.411,11.412-4.123-1.121-.824-6.307-.294-9.428s-1.236-6.774,0-7.955c1.17-1.111,3.33.031,5.85-.481a7.561,7.561,0,0,0,.931,5.306A5,5,0,0,0,248.377,347.055Z" transform="translate(-228.828 -218.13)"/><path class="x" d="M255.822,404.287s4.2-.309,4.111.84-4.419.354-4.507,1.193,5.17.088,5.214,1.149-3.491.221-4.021,1.149" transform="translate(-236.775 -248.795)"/><path class="x" d="M247.416,355.991s3.886,1.237,3.534,2.209-3.76-1.237-4.42-.442,3.585,1.458,3.318,2.784-3.713-.928-3.713-.928" transform="translate(-232.302 -225.553)"/><path class="c" d="M250.129,196.437a.542.542,0,1,1-.764-.357A.6.6,0,0,1,250.129,196.437Z" transform="translate(-233.728 -148.517)"/><path class="c" d="M254.505,193a.542.542,0,1,1-.764-.357A.6.6,0,0,1,254.505,193Z" transform="translate(-235.835 -146.862)"/><path class="q" d="M248.306,201.6s4.021.373,4.816-2.178" transform="translate(-233.347 -150.147)"/><path class="m" d="M243.171,200.436a6.045,6.045,0,0,1-1.143-.246l-.491-2.811a.191.191,0,0,0-.349-.073.715.715,0,0,1-.969.232c-1.063-.443-1.194-2.7.661-2.253-.308-2.7,2.565-5.7,5.7-6.452a6.984,6.984,0,0,1,1.831.99c-1.263.277-4.853,1.2-5.867,2.915C241.6,194.333,242.627,198.535,243.171,200.436Z" transform="translate(-229.08 -145.048)"/><path class="m" d="M254.175,330.081a4.3,4.3,0,0,1-1.052-3.981c3.77-3.856,6.3-12,7.28-19.436a37.734,37.734,0,0,0,.042-11.367,20.156,20.156,0,0,0-.62-2.343c-2.052-6.29-6.815-12.177-6.7-17.875a1.8,1.8,0,0,1-.81-.353c-2.389-2.122-.62-11.225-3.167-15.908,3.167.588,5,3.711,6.618,11.222.1.468.221.938.357,1.413a33.849,33.849,0,0,0,1.169,3.323c2.534,6.286,6.76,13.4,7.041,23.046C264.646,308.568,258.107,325.321,254.175,330.081Z" transform="translate(-233.753 -178.753)"/><path class="p" d="M279.557,239.478c-.114-.793-.239-1.54-.377-2.253a6.164,6.164,0,0,1-2.541.543,6.245,6.245,0,0,1-1.942-12.181A17.388,17.388,0,0,1,272.3,220.5a11.848,11.848,0,0,0,7.279,22.5.143.143,0,0,0,.007-.038A12.658,12.658,0,0,0,279.557,239.478Z" transform="translate(-241.288 -160.297)"/><path class="p" d="M229.451,228.522c-.605,1.191-1.2,2.441-1.772,3.739a4.571,4.571,0,1,1-3.164,8.539q-.6,1.958-1.093,3.984a8.672,8.672,0,1,0,6.029-16.262Z" transform="translate(-221.363 -164.163)"/><path class="p" d="M287,173.731c.377-1.294.713-2.648.987-4.06q-.421-.041-.852-.041a8.671,8.671,0,0,0-4.953,15.788c.592-1.166,1.215-2.427,1.835-3.78A4.569,4.569,0,0,1,287,173.731Z" transform="translate(-247.871 -135.799)"/></g><g transform="translate(17.914 54.617)"><path class="y" d="M134.285,204.829a20.632,20.632,0,0,1-4.122-1.485c1.028,3.808,2.513,9.152,3.1,10.633.813,2.056,1.81,3.257,1.907,4.272a.025.025,0,0,0,0,.01,1.523,1.523,0,0,1-.024.45c-.235,1.118-8.695,10.021-14.012,9.252s-6.912-3.008-6.912-3.008L110.4,205.591a12.3,12.3,0,0,0-.294,2.714c-.187.062-.374.132-.557.2a17.775,17.775,0,0,0-6.327,4.825,11.141,11.141,0,0,1-.952-4.87c.191-9.245,6.892-16.49,11.281-18.962a8.136,8.136,0,0,1,1.831-.8,6.216,6.216,0,0,1,.107,1.229c-.014.159.135.336.4.505a5.09,5.09,0,0,0,4.05.5,3.219,3.219,0,0,0,.834-.568,1.135,1.135,0,0,0,.28-1.274c-.045-.159-.142-.346-.221-.6a14.128,14.128,0,0,1,1.772.115,19.4,19.4,0,0,1,9.3,3.987,21.5,21.5,0,0,0,4.732,2.974,13.857,13.857,0,0,1-.994,6.455A18.777,18.777,0,0,1,134.285,204.829Z" transform="translate(-102.271 -171.574)"/><path class="z" d="M178.209,175.763c-.45,2.967,0,11.388-4.894,15.656a10.641,10.641,0,0,1-6.3,2.492,9.906,9.906,0,0,1-2.987-.27,18.775,18.775,0,0,0,1.364-2.793,13.857,13.857,0,0,0,.994-6.455l.069.031a8.859,8.859,0,0,0,3.919.748c2.416-.1,4.181-7.671,3.652-9.747s-2.063-3.607-1.294-4.493,1.589.474,2.119-.471-.647-5.126,1.592-5.185S179.268,172.817,178.209,175.763Z" transform="translate(-132.013 -160.386)"/><path class="c" d="M129.392,163.688a2.487,2.487,0,0,1-1.476.161,1.658,1.658,0,0,1-.746-.352,2.676,2.676,0,0,1-3.065-.355s-.526,1.615-2.835,1.174a3,3,0,0,1-2.036,2.246c-1.45-.546-1.575.569-1.26,1.7s1.3.464,1.385.737.316,1.806.316,1.806-1.849.418-2.75-.674a2.273,2.273,0,0,1-.105-2.457s-1.45.043-1.973-2.559,1.174-3.338,1.174-3.338-1.236-3.3.862-4.512,4.239.4,4.239.4a3.535,3.535,0,0,1,3.022-1.805,3.057,3.057,0,0,1,3.065,2.161C131.408,157.2,130.819,163.119,129.392,163.688Z" transform="translate(-108.278 -155.844)"/><path class="aa" d="M131.959,175.78a4.182,4.182,0,0,1-2.371,2.752,5.956,5.956,0,0,1-5.517.135,6.464,6.464,0,0,1-.8-.481,7.056,7.056,0,0,1-.727-.6s-.228-1.533-.315-1.807-1.07.4-1.385-.738-.191-2.246,1.26-1.7a3,3,0,0,0,2.035-2.247c2.309.44,2.835-1.173,2.835-1.173a2.677,2.677,0,0,0,3.067.353,1.639,1.639,0,0,0,.744.353,12.624,12.624,0,0,1,.557,1.34A9.128,9.128,0,0,1,131.959,175.78Z" transform="translate(-111.146 -162.625)"/><path class="ab" d="M132.782,189.423a3.22,3.22,0,0,1-.834.568,5.048,5.048,0,0,1-3.866-.395,1.9,1.9,0,0,1-.184-.107c-.263-.17-.412-.346-.4-.505a6.217,6.217,0,0,0-.107-1.229c-.059-.385-.132-.779-.19-1.091a5.956,5.956,0,0,0,5.517-.135,2.813,2.813,0,0,0,.052.758,2.514,2.514,0,0,0,.069.266c.079.249.176.436.221.6A1.135,1.135,0,0,1,132.782,189.423Z" transform="translate(-114.278 -170.622)"/><path class="c" d="M155.15,297.135c-.685,7.4-1.88,13.413-3.033,13.966a5.22,5.22,0,0,1-1.478.426,11,11,0,0,1-5.926-.741,2.574,2.574,0,0,1-.512-.34,1.115,1.115,0,0,1-.391-.582c-.343-1.55.734-7.864.793-8.207l-.038.087c-.018.042-.042.093-.073.159l-.1.218-.062.128c-.54,1.125-1.79,3.437-2.977,3.638a7.177,7.177,0,0,1-3.174-.848c-.284-.128-.571-.266-.855-.418-1.71-.9-3.378-2.188-3.853-3.538a2.216,2.216,0,0,1-.135-.772c.038-2.925,8.442-14.662,8-19.965s-6.365-10.959-10.076-14.14-5.923-7.335-5.929-13.61c0,0,1.6,2.239,6.912,3.008s13.777-8.134,14.012-9.252a1.522,1.522,0,0,0,.024-.45,195.955,195.955,0,0,1,7.463,22.278c.474,1.866.886,3.7,1.2,5.448C156.042,279.707,155.887,289.215,155.15,297.135Z" transform="translate(-113.378 -199.218)"/><path class="m" d="M139.408,266.16c-.491,3.465-5.289,19.571-5.635,26.691-1.71-.9-3.378-2.188-3.853-3.538a2.216,2.216,0,0,1-.135-.772c.038-2.925,8.442-14.662,8-19.965s-6.365-10.959-10.076-14.14-5.923-7.335-5.929-13.61l-3.822-19.363a4.885,4.885,0,0,1,4.534,3.205c1.416,3.372,1.5,9.855,4.552,11.914s.01,3.074,1.647,7.252,6.411,8.833,6.293,12.015S140,261.975,139.408,266.16Z" transform="translate(-109.827 -187.446)"/><path class="x" d="M165.737,245.883a.025.025,0,0,0,0,.01" transform="translate(-132.837 -199.208)"/><path class="c" d="M162.364,353.627c-.018.041-.042.093-.073.159Z" transform="translate(-131.177 -251.099)"/><path class="m" d="M172.253,311.616c-4.036,4.887-8.813,10.045-10.436,13.652a1.586,1.586,0,0,1-.9-.921c-.343-1.551.734-7.864.793-8.207,2.877-5.493,11.374-23.611,6.428-31.447-4.344-6.881-5.559-8.443-5.788-8.723a46.006,46.006,0,0,0,8.5,6.691c.474,1.866.886,3.7,1.2,5.448C173.146,294.188,172.991,303.7,172.253,311.616Z" transform="translate(-130.481 -213.698)"/><path class="ac" d="M142.112,358.966c.332,2.143.6,10.273-1.811,10.052s-3.645-2.627-4.133-6.341-1.855-4.285-1.789-6.165c.059-1.557,2.433-3.292,3.447-4.161.554,1.575,2.731,3.06,4.707,3.956A5.184,5.184,0,0,0,142.112,358.966Z" transform="translate(-117.733 -250.484)"/><path class="ad" d="M170.216,383.636c-2.292.769-4.393-.934-6.338-4.133s-3.431-3.174-4.126-4.919c-.443-1.115.322-2.869.963-4.171a2.574,2.574,0,0,0,.512.34,11,11,0,0,0,5.926.741,4.856,4.856,0,0,0,.665,2.215C168.983,375.533,172.511,382.864,170.216,383.636Z" transform="translate(-129.891 -259.183)"/><path class="q" d="M144.794,365.935s3.034.236,2.916,1.12-2.8-.177-3.123.854,2.462.32,2.851,1.544-2.115.371-2.851.547" transform="translate(-122.638 -257.026)"/><path class="q" d="M171.435,378.974s2.622-.766,3.24,0-2.5.8-2.327,1.591,2.8-.678,3.211.206-2.187.972-2.463,1.5" transform="translate(-135.581 -263.142)"/><rect class="c" width="6.275" height="10.87" rx="1.193" transform="translate(17.525 32.818) rotate(-15.414)"/><path class="ae" d="M122.811,233.8c-4.441,6.59-15.4,5.2-18.7-2.074A17.089,17.089,0,0,1,111,226.7a4.088,4.088,0,0,0,.913,2.773c3.621,3.891,8.747,1.855,9.394,1s.149-2.181.651-2.271.145.5.647.71,1.032-2.122,2.652-2.056S126.287,233.39,122.811,233.8Z" transform="translate(-103.158 -189.969)"/><path class="m" d="M168.263,211.453a10.641,10.641,0,0,1-6.3,2.492,9.9,9.9,0,0,1-2.987-.27,20.632,20.632,0,0,1-4.122-1.485l-1.315-5.317a25.734,25.734,0,0,0,6.8,4.009A11.979,11.979,0,0,0,168.263,211.453Z" transform="translate(-126.962 -180.421)"/><path class="c" d="M132.851,177.017a.44.44,0,1,1-.427-.545A.5.5,0,0,1,132.851,177.017Z" transform="translate(-116.587 -165.779)"/><path class="c" d="M138.079,175.966a.44.44,0,1,1-.427-.545A.5.5,0,0,1,138.079,175.966Z" transform="translate(-119.105 -165.273)"/><path class="b" d="M130.121,181.075l4.11.324a2.928,2.928,0,0,1-2.46,1.487C130.666,182.8,130.121,181.075,130.121,181.075Z" transform="translate(-115.684 -167.996)"/><path class="m" d="M131.34,171.969c-4.115-1.835-7.9.935-8.335,2.042-.4,1.014.048,3.313.263,4.174a7.056,7.056,0,0,1-.727-.6s-.228-1.533-.315-1.807-1.07.4-1.385-.738-.191-2.246,1.26-1.7a3,3,0,0,0,2.035-2.247c2.309.44,2.835-1.173,2.835-1.173a2.677,2.677,0,0,0,3.067.353,1.639,1.639,0,0,0,.744.353A12.624,12.624,0,0,1,131.34,171.969Z" transform="translate(-111.146 -162.625)"/><path class="m" d="M132.772,187.287a13.8,13.8,0,0,0-4.69,2.309,1.9,1.9,0,0,1-.184-.107c-.263-.17-.412-.346-.4-.505a6.217,6.217,0,0,0-.107-1.229c-.059-.385-.132-.779-.19-1.091a5.956,5.956,0,0,0,5.517-.135A2.813,2.813,0,0,0,132.772,187.287Z" transform="translate(-114.278 -170.622)"/><path class="m" d="M130.725,192.933a6.8,6.8,0,0,1-6.687-3.431,8.137,8.137,0,0,1,1.831-.8,6.216,6.216,0,0,1,.107,1.229c-.014.159.135.336.4.505a5.09,5.09,0,0,0,4.05.5,3.22,3.22,0,0,0,.834-.568,1.135,1.135,0,0,0,.28-1.274c-.045-.159-.142-.346-.221-.6a14.128,14.128,0,0,1,1.772.115C133.584,190.593,133.446,192.7,130.725,192.933Z" transform="translate(-112.754 -171.574)"/></g><g transform="translate(28.298 30.664)"><path class="af" d="M146.34,110.037v14.051a.4.4,0,0,1-.4.4H130.3a.4.4,0,0,0-.4.4v3.266a.4.4,0,0,1-.726.224l-2.542-3.715a.4.4,0,0,0-.328-.173H122.7a.4.4,0,0,1-.4-.4V110.037a.4.4,0,0,1,.4-.4h23.243A.4.4,0,0,1,146.34,110.037Z" transform="translate(-122.302 -109.639)"/><g transform="translate(8.666 7.085)"><path class="c" d="M139.959,123.777a.47.47,0,1,1-.47-.47A.47.47,0,0,1,139.959,123.777Z" transform="translate(-139.019 -123.307)"/><path class="c" d="M145.521,123.777a.47.47,0,1,1-.47-.47A.47.47,0,0,1,145.521,123.777Z" transform="translate(-141.698 -123.307)"/><path class="c" d="M151.083,123.777a.47.47,0,1,1-.47-.47A.47.47,0,0,1,151.083,123.777Z" transform="translate(-144.376 -123.307)"/></g></g><g transform="translate(170.308)"><path class="af" d="M396.245,50.884V64.936a.4.4,0,0,0,.4.4h15.642a.4.4,0,0,1,.4.4V69a.4.4,0,0,0,.726.224l2.542-3.715a.4.4,0,0,1,.328-.173h3.607a.4.4,0,0,0,.4-.4V50.884a.4.4,0,0,0-.4-.4H396.643A.4.4,0,0,0,396.245,50.884Z" transform="translate(-396.245 -50.486)"/><g transform="translate(8.665 7.131)"><path class="c" d="M413.9,64.713a.47.47,0,1,1-.47-.47A.47.47,0,0,1,413.9,64.713Z" transform="translate(-412.961 -64.243)"/><path class="c" d="M419.463,64.713a.47.47,0,1,1-.47-.47A.47.47,0,0,1,419.463,64.713Z" transform="translate(-415.64 -64.243)"/><path class="c" d="M425.025,64.713a.47.47,0,1,1-.47-.47A.47.47,0,0,1,425.025,64.713Z" transform="translate(-418.318 -64.243)"/></g></g><g transform="translate(75.384 40.104)"><path class="c" d="M213.132,128.247V142.3a.4.4,0,0,0,.4.4h9.809a.4.4,0,0,1,.4.4v3.266a.4.4,0,0,0,.726.224l2.542-3.715a.4.4,0,0,1,.328-.173h9.44a.4.4,0,0,0,.4-.4V128.247a.4.4,0,0,0-.4-.4H213.53A.4.4,0,0,0,213.132,128.247Z" transform="translate(-213.132 -127.849)"/><path class="b" d="M233.33,141.724v-.837a.228.228,0,0,0-.229-.229h-5.729a.228.228,0,0,1-.228-.229v-1.883a.228.228,0,0,1,.228-.229H233.1a.228.228,0,0,0,.229-.228v-.838a.228.228,0,0,1,.369-.18l2.869,2.236a.229.229,0,0,1,0,.36L233.7,141.9A.228.228,0,0,1,233.33,141.724Z" transform="translate(-219.881 -132.268)"/></g></g></g></svg>