<svg width="50" height="50" viewBox="0 0 50 50" fill="none" xmlns="http://www.w3.org/2000/svg">
<path fill-rule="evenodd" clip-rule="evenodd" d="M18.5775 35.4448L35.0726 25.4721C35.1528 25.4224 35.219 25.3529 35.2647 25.2704C35.3105 25.1878 35.3342 25.0948 35.3338 25.0004C35.3333 24.906 35.3086 24.8133 35.2621 24.7312C35.2156 24.6491 35.1487 24.5803 35.068 24.5314L18.5775 14.5556C18.4958 14.5069 18.4025 14.481 18.3074 14.4805C18.2123 14.48 18.1188 14.505 18.0366 14.5528C17.9543 14.6006 17.8864 14.6696 17.8398 14.7525C17.7932 14.8354 17.7697 14.9293 17.7716 15.0244V34.976C17.7702 35.0709 17.794 35.1645 17.8407 35.2471C17.8875 35.3298 17.9553 35.3985 18.0374 35.4462C18.1194 35.4939 18.2127 35.519 18.3076 35.5187C18.4025 35.5185 18.4957 35.493 18.5775 35.4448Z" fill="#FFCA05"/>
</svg>
