<svg xmlns="http://www.w3.org/2000/svg" width="66" height="66" viewBox="0 0 66 66"><defs><style>.a,.c{fill:#fff;}.a{opacity:0.4;}.b{fill:#091c2d;}</style></defs><g transform="translate(-1188.307 -1169.307)"><circle class="a" cx="33" cy="33" r="33" transform="translate(1188.307 1169.307)"/><circle class="b" cx="26" cy="26" r="26" transform="translate(1195.307 1176.307)"/><path class="c" d="M29.67,3.375A26.295,26.295,0,1,0,55.964,29.67,26.291,26.291,0,0,0,29.67,3.375ZM40.263,30.163,22.919,40.655a.562.562,0,0,1-.847-.493V19.177a.56.56,0,0,1,.847-.493L40.263,29.177A.579.579,0,0,1,40.263,30.163Z" transform="translate(1191.637 1172.637)"/></g></svg>