<svg xmlns="http://www.w3.org/2000/svg" width="17.134" height="22" viewBox="0 0 17.134 22"><defs><style>.a{fill:#cbcbcb;}</style></defs><g transform="translate(-65.185 -11)"><path class="a" d="M123.854,59.481a.269.269,0,1,0,.535-.066c-.014-.111-.025-.224-.033-.335a.269.269,0,0,0-.537.04C123.828,59.241,123.839,59.362,123.854,59.481Z" transform="translate(-56 -45.684)"/><path class="a" d="M128.69,87.14a.269.269,0,0,0-.194.328,7.5,7.5,0,0,0,1.078,2.373.269.269,0,1,0,.445-.3,6.967,6.967,0,0,1-1-2.2A.269.269,0,0,0,128.69,87.14Z" transform="translate(-60.46 -72.713)"/><path class="a" d="M126,288.884a7.173,7.173,0,0,0-3.426,2.716,7.765,7.765,0,0,0-1.264,3.965.269.269,0,0,0,.269.281h11.534a.269.269,0,0,0,.269-.281,7.764,7.764,0,0,0-1.264-3.965,7.172,7.172,0,0,0-3.426-2.716,3.829,3.829,0,0,0-2.692,0Zm5.67,3.014a7.181,7.181,0,0,1,1.156,3.409h-10.96a7.182,7.182,0,0,1,1.156-3.409,6.636,6.636,0,0,1,3.171-2.511,3.29,3.29,0,0,1,2.305,0A6.635,6.635,0,0,1,131.666,291.9Z" transform="translate(-53.601 -265.175)"/><path class="a" d="M159.185,158.605a.269.269,0,0,0,.02.28,10.394,10.394,0,0,0,2.935,2.091,1.064,1.064,0,0,1,.62.653l.376,1.119a.372.372,0,0,0,.355.256h.012a.373.373,0,0,0,.35-.278l.273-1.022c.083-.312.329-.508.7-.722,0,0,.53-.32,1.144-.754a6.507,6.507,0,0,0,1.529-1.347.269.269,0,0,0-.223-.42h-7.85a.269.269,0,0,0-.239.146Zm7.478.393a16.525,16.525,0,0,1-2.109,1.517,1.785,1.785,0,0,0-.949,1.05l-.132.5-.2-.6a1.6,1.6,0,0,0-.925-.98,13.144,13.144,0,0,1-2.3-1.48Z" transform="translate(-89.751 -140.838)"/><path class="a" d="M82.05,12.856a.269.269,0,0,0,.269-.269A1.589,1.589,0,0,0,80.732,11H66.772a1.589,1.589,0,0,0-1.587,1.587.269.269,0,0,0,.269.269h.6V31.144h-.6a.269.269,0,0,0-.269.269A1.589,1.589,0,0,0,66.772,33H80.732a1.589,1.589,0,0,0,1.587-1.587.269.269,0,0,0-.269-.269h-.6V12.856Zm-.3,18.826a1.05,1.05,0,0,1-1.013.779H66.772a1.05,1.05,0,0,1-1.013-.779ZM67.591,17.366a7.515,7.515,0,0,0,2.565,2.726L72.384,21.5a.584.584,0,0,1,0,.986L70.157,23.89a7.515,7.515,0,0,0-3.5,6.356v.9h-.068V12.856h.068v.879A7.551,7.551,0,0,0,67.591,17.366Zm12.3,9.249a7.515,7.515,0,0,0-2.565-2.725L75.1,22.484a.584.584,0,0,1,0-.986l2.227-1.406a7.515,7.515,0,0,0,3.5-6.356v-.879h.088V31.144h-.088v-.9A7.551,7.551,0,0,0,79.893,26.615Zm.394-12.88a6.977,6.977,0,0,1-3.247,5.9l-2.227,1.406a1.122,1.122,0,0,0,0,1.9l2.227,1.406a6.977,6.977,0,0,1,3.247,5.9v.9H67.2v-.9a6.976,6.976,0,0,1,3.247-5.9l2.227-1.406a1.122,1.122,0,0,0,0-1.9l-2.227-1.406a6.976,6.976,0,0,1-3.247-5.9v-.879H80.286ZM65.759,12.317a1.05,1.05,0,0,1,1.013-.779H80.732a1.05,1.05,0,0,1,1.013.779Z"/></g></svg>