<svg xmlns="http://www.w3.org/2000/svg" width="18.976" height="18.976" viewBox="0 0 18.976 18.976"><defs><style>.a{fill:#255eab;}</style></defs><path class="a" d="M4.488,13.333A9.3,9.3,0,0,1,5.769,8.564,9.48,9.48,0,0,1,9.232,5.1a9.47,9.47,0,0,1,8.435-.522A9.573,9.573,0,0,1,20.692,6.6a9.291,9.291,0,0,1,2.022,3.034,9.4,9.4,0,0,1,.75,3.7,10.233,10.233,0,0,1-.193,1.9,8.653,8.653,0,0,1-.557,1.779,9.286,9.286,0,0,1-5.047,5.039,9.457,9.457,0,0,1-7.382,0A9.337,9.337,0,0,1,5.23,17.015,9.132,9.132,0,0,1,4.488,13.333Zm2.09,0A7.161,7.161,0,0,0,8.76,18.54a7.117,7.117,0,0,0,5.224,2.182,7.164,7.164,0,0,0,3.7-.994,7.476,7.476,0,0,0,2.7-2.7,7.34,7.34,0,0,0,0-7.407,7.434,7.434,0,0,0-2.7-2.7,7.378,7.378,0,0,0-7.4,0,7.588,7.588,0,0,0-2.713,2.7A7.135,7.135,0,0,0,6.578,13.333Zm6.674,0V7.721a.7.7,0,1,1,1.4,0v4.9h3.185a.691.691,0,0,1,.7.7.708.708,0,0,1-.2.5.656.656,0,0,1-.5.211H14.094a.646.646,0,0,1-.152.008.677.677,0,0,1-.691-.708Z" transform="translate(-4.488 -3.828)"/></svg>