<svg xmlns="http://www.w3.org/2000/svg" width="25.563" height="22.368" viewBox="0 0 25.563 22.368"><defs><style>.a{fill:#00a5b8;}</style></defs><path class="a" d="M1.6,23.02a1.6,1.6,0,0,0,1.6,1.6h7.989V16.629H1.6Zm12.782,1.6h7.989a1.6,1.6,0,0,0,1.6-1.6V16.629H14.379ZM23.966,8.641h-2.1a4.353,4.353,0,0,0,.5-2A4.4,4.4,0,0,0,17.974,2.25c-2.077,0-3.42,1.063-5.143,3.41C11.109,3.313,9.766,2.25,7.689,2.25A4.4,4.4,0,0,0,3.3,6.644a4.292,4.292,0,0,0,.5,2H1.6a1.6,1.6,0,0,0-1.6,1.6v3.994a.8.8,0,0,0,.8.8H24.765a.8.8,0,0,0,.8-.8V10.239A1.6,1.6,0,0,0,23.966,8.641Zm-16.282,0a2,2,0,0,1,0-3.994c.994,0,1.728.165,4.3,3.994h-4.3Zm10.29,0h-4.3c2.566-3.82,3.28-3.994,4.3-3.994a2,2,0,1,1,0,3.994Z" transform="translate(0 -2.25)"/></svg>