<svg xmlns="http://www.w3.org/2000/svg" width="21.018" height="30.317" viewBox="0 0 21.018 30.317"><defs><style>.a{fill:#00a5b8;}</style></defs><path class="a" d="M82.211,27.318H78.734a.374.374,0,0,1-.373-.373v-8.58a1.145,1.145,0,0,1,.41-.825c1.981-1.6,2.786-3.148,2.087-5.762l0-.011c-.03-.12-.092-.181-.186-.181a.29.29,0,0,0-.16.059l-1.747,1.18a1.84,1.84,0,0,1-1.013.326A1.113,1.113,0,0,1,76.8,12.7a1.078,1.078,0,0,1-.1-.948,1.793,1.793,0,0,1,.718-.921l2.069-1.4.013-.01a.305.305,0,0,0,.026-.4l-.834-1.235a.252.252,0,0,0-.213-.118.344.344,0,0,0-.188.062L76.248,9.1a1.84,1.84,0,0,1-1.013.326,1.113,1.113,0,0,1-.951-.453,1.078,1.078,0,0,1-.1-.948,1.793,1.793,0,0,1,.718-.921l1.953-1.319a.456.456,0,0,0,.205-.257A.292.292,0,0,0,77.01,5.3L76.195,4.09a.279.279,0,0,0-.238-.126.448.448,0,0,0-.217.064L73.735,5.382a1.84,1.84,0,0,1-1.013.326,1.113,1.113,0,0,1-.951-.453,1.417,1.417,0,0,1,.616-1.87l1.765-1.192a.331.331,0,0,0,.157-.263.751.751,0,0,0-.289-.514A5.213,5.213,0,0,0,70.642,0c-1.284,0-2.655.556-4.585,1.86a9.1,9.1,0,0,0-3.278,3.256,5.088,5.088,0,0,0-.012,4.245.346.346,0,0,0,.314.234.393.393,0,0,0,.22-.074L65.107,8.3a1.84,1.84,0,0,1,1.013-.326,1.113,1.113,0,0,1,.951.453,1.078,1.078,0,0,1,.1.948,1.793,1.793,0,0,1-.718.921L64.44,11.659a.361.361,0,0,0-.159.209.268.268,0,0,0,.045.211l.847,1.254a.269.269,0,0,0,.225.127.341.341,0,0,0,.193-.066l2.03-1.371a1.84,1.84,0,0,1,1.013-.326,1.113,1.113,0,0,1,.951.453,1.078,1.078,0,0,1,.1.948,1.793,1.793,0,0,1-.718.921l-1.963,1.326a.386.386,0,0,0-.11.539l.761,1.127a.308.308,0,0,0,.261.142.48.48,0,0,0,.244-.077l1.972-1.332a1.84,1.84,0,0,1,1.013-.326,1.113,1.113,0,0,1,.951.453,1.417,1.417,0,0,1-.616,1.869L69.76,18.9a.233.233,0,0,0-.117.191.331.331,0,0,0,.158.254,5.066,5.066,0,0,0,3.009,1.13,4.963,4.963,0,0,0,1.8-.368c.2-.079.618-.293.618.491v6.342a.373.373,0,0,1-.373.373H71.377a1.12,1.12,0,0,0-1.119,1.119V29.2a1.12,1.12,0,0,0,1.119,1.119H82.211A1.12,1.12,0,0,0,83.33,29.2v-.761A1.12,1.12,0,0,0,82.211,27.318Z" transform="translate(-62.312)"/></svg>