<svg xmlns="http://www.w3.org/2000/svg" width="30.964" height="24.771" viewBox="0 0 30.964 24.771"><defs><style>.a{fill:#fff;}</style></defs><path class="a" d="M30.19,17.03h-.774V11.8a2.322,2.322,0,0,0-.682-1.64L23.9,5.327a2.322,2.322,0,0,0-1.64-.682H20.127V2.322A2.323,2.323,0,0,0,17.8,0H5.419A2.323,2.323,0,0,0,3.1,2.322V4.645H.387A.388.388,0,0,0,0,5.032v.774a.388.388,0,0,0,.387.387h13.16a.388.388,0,0,1,.387.387v.774a.388.388,0,0,1-.387.387H1.935a.388.388,0,0,0-.387.387V8.9a.388.388,0,0,0,.387.387H12a.388.388,0,0,1,.387.387v.774a.388.388,0,0,1-.387.387H.387A.388.388,0,0,0,0,11.225V12a.388.388,0,0,0,.387.387H10.45a.388.388,0,0,1,.387.387v.774a.388.388,0,0,1-.387.387H3.1v6.193a4.645,4.645,0,0,0,9.289,0h6.193a4.645,4.645,0,0,0,9.289,0H30.19a.776.776,0,0,0,.774-.774V17.8A.776.776,0,0,0,30.19,17.03ZM7.741,22.449a2.322,2.322,0,1,1,2.322-2.322A2.323,2.323,0,0,1,7.741,22.449Zm15.482,0a2.322,2.322,0,1,1,2.322-2.322A2.323,2.323,0,0,1,23.223,22.449Zm3.871-10.063H20.127V6.967H22.26L27.094,11.8Z"/></svg>