<svg xmlns="http://www.w3.org/2000/svg" width="38" height="38" viewBox="0 0 38 38"><defs><style>.a{fill:#daf7e8;}.b{fill:#478565;}</style></defs><circle class="a" cx="19" cy="19" r="19"/><path class="b" d="M18.983,7.221,10.475,4.607a2.437,2.437,0,0,0-1.427,0L.539,7.221a.718.718,0,0,0,0,1.391l1.483.456A2.4,2.4,0,0,0,1.477,10.5.941.941,0,0,0,1.4,12.115l-.779,3.5a.488.488,0,0,0,.476.594H2.808a.488.488,0,0,0,.476-.594l-.779-3.5a.939.939,0,0,0-.055-1.6,1.439,1.439,0,0,1,.631-1.12l5.965,1.833a2.439,2.439,0,0,0,1.427,0l8.509-2.614a.718.718,0,0,0,0-1.391Zm-8.222,4.938a3.415,3.415,0,0,1-2,0L4.337,10.8,3.9,14.261c0,1.078,2.622,1.952,5.857,1.952s5.857-.874,5.857-1.952L15.185,10.8l-4.424,1.359Z" transform="translate(9 8.5)"/></svg>