<svg xmlns="http://www.w3.org/2000/svg" width="67.885" height="88.167" viewBox="0 0 67.885 88.167"><defs><style>.a{fill:#eaf2ff;}.b{fill:#e8e8e8;}.c{fill:#c9e0fd;}.d{fill:#ffd064;}.e{fill:#ffc250;}.f{fill:#fff;}.g{fill:#60a0f7;}</style></defs><g transform="translate(-58.889)"><g transform="translate(58.889)"><g transform="translate(5.956 0.206)"><path class="a" d="M137.072,17.156a4.133,4.133,0,0,0-.488-3.236A28.355,28.355,0,0,0,118.077,1.194a28.027,28.027,0,0,0-24.6,27.781v33.46h8.4V29.2A19.819,19.819,0,0,1,121.566,9.389a19.567,19.567,0,0,1,15.506,7.767Z" transform="translate(-93.477 -1.194)"/><path class="b" d="M369.745,347.959v1.527h1.021Z" transform="translate(-322.171 -288.246)"/></g><g transform="translate(29.064)"><path class="c" d="M232.549,0a28.052,28.052,0,0,0-4.878.426,28.078,28.078,0,0,1,20.486,15.741,19.485,19.485,0,0,1,3.979,11.82v33.46h8.4V27.987A28.018,28.018,0,0,0,232.549,0Z" transform="translate(-227.671)"/></g><path class="d" d="M118.8,287.683V253.646a5.718,5.718,0,0,0-5.718-5.718H64.607a5.719,5.719,0,0,0-5.718,5.718v34.037a5.719,5.719,0,0,0,5.718,5.718h48.471A5.719,5.719,0,0,0,118.8,287.683Z" transform="translate(-58.889 -205.234)"/><path class="e" d="M372.977,247.928h-9.762a5.719,5.719,0,0,1,5.718,5.718v34.037a5.718,5.718,0,0,1-5.718,5.718h9.762a5.718,5.718,0,0,0,5.718-5.718V253.646A5.718,5.718,0,0,0,372.977,247.928Z" transform="translate(-310.81 -205.234)"/><circle class="f" cx="16.591" cy="16.591" r="16.591" transform="translate(17.351 48.839)"/><path class="a" d="M232.549,283.615a16.586,16.586,0,0,0-4.878.729,16.6,16.6,0,0,1,0,31.724,16.593,16.593,0,1,0,4.878-32.453Z" transform="translate(-198.607 -234.776)"/><path class="g" d="M237.265,334.93a4.921,4.921,0,1,0-7.948,3.879l-1.324,6.943a1.231,1.231,0,0,0,1.209,1.462h6.283a1.231,1.231,0,0,0,1.209-1.462l-1.324-6.943A4.912,4.912,0,0,0,237.265,334.93Z" transform="translate(-198.4 -273.181)"/></g></g></svg>